<?xml version="1.0" encoding="UTF-8" standalone="no"?><!DOCTYPE svg PUBLIC "-//W3C//DTD SVG 1.1//EN" "http://www.w3.org/Graphics/SVG/1.1/DTD/svg11.dtd"><svg width="100%" height="100%" viewBox="0 0 500 500" version="1.1" xmlns="http://www.w3.org/2000/svg" xmlns:xlink="http://www.w3.org/1999/xlink" xml:space="preserve" style="fill-rule:evenodd;clip-rule:evenodd;stroke-linejoin:round;stroke-miterlimit:1.41421;"><path d="M219.772,160.434c21.792,-32.892 59.173,-54.598 101.588,-54.598c67.234,0 121.819,54.541 121.819,121.72c0,2.966 -0.106,5.906 -0.355,8.835c33.079,10.033 57.176,40.794 57.176,77.138c0,44.504 -36.131,80.635 -80.635,80.635l-338.73,0c-44.504,0 -80.635,-36.131 -80.635,-80.635c0,-37.944 26.266,-69.802 61.598,-78.276l-0.009,-0.342c0,-53.336 43.302,-96.638 96.638,-96.638c23.363,0 44.8,8.309 61.545,22.161Z" style="fill:#fff;"/></svg>