<?xml version="1.0" encoding="UTF-8" standalone="no"?><!DOCTYPE svg PUBLIC "-//W3C//DTD SVG 1.1//EN" "http://www.w3.org/Graphics/SVG/1.1/DTD/svg11.dtd"><svg width="100%" height="100%" viewBox="0 0 22 22" version="1.1" xmlns="http://www.w3.org/2000/svg" xmlns:xlink="http://www.w3.org/1999/xlink" xml:space="preserve" style="fill-rule:evenodd;clip-rule:evenodd;stroke-linejoin:round;stroke-miterlimit:1.41421;"><path id="Expand" d="M10.909,0.057c5.95,0 10.78,4.831 10.78,10.78c0,5.95 -4.83,10.78 -10.78,10.78c-5.949,0 -10.78,-4.83 -10.78,-10.78c0,-5.949 4.831,-10.78 10.78,-10.78Zm1.877,16.044c0,0.513 -0.18,0.946 -0.539,1.299c-0.359,0.353 -0.802,0.529 -1.328,0.529c-0.257,0 -0.497,-0.045 -0.722,-0.134c-0.224,-0.09 -0.423,-0.219 -0.597,-0.385c-0.173,-0.167 -0.311,-0.36 -0.413,-0.578c-0.103,-0.218 -0.154,-0.455 -0.154,-0.712c0,-0.244 0.048,-0.478 0.144,-0.702c0.096,-0.225 0.231,-0.42 0.404,-0.587c0.173,-0.167 0.376,-0.299 0.606,-0.395c0.231,-0.096 0.475,-0.144 0.732,-0.144c0.256,0 0.497,0.048 0.722,0.144c0.224,0.096 0.423,0.225 0.596,0.385c0.173,0.16 0.308,0.353 0.404,0.577c0.097,0.225 0.145,0.459 0.145,0.703Zm-0.385,-2.714l0,-0.5c0,-0.205 0.016,-0.382 0.048,-0.529c0.032,-0.148 0.086,-0.289 0.163,-0.424c0.077,-0.135 0.183,-0.266 0.318,-0.394c0.135,-0.129 0.305,-0.276 0.51,-0.443c0.334,-0.257 0.632,-0.504 0.895,-0.741c0.263,-0.237 0.488,-0.491 0.674,-0.76c0.186,-0.27 0.33,-0.565 0.433,-0.885c0.102,-0.321 0.154,-0.693 0.154,-1.117c0,-0.667 -0.129,-1.244 -0.385,-1.732c-0.257,-0.487 -0.597,-0.888 -1.02,-1.203c-0.424,-0.314 -0.908,-0.545 -1.453,-0.693c-0.546,-0.147 -1.107,-0.221 -1.684,-0.221c-0.616,0 -1.2,0.087 -1.752,0.26c-0.552,0.173 -1.046,0.433 -1.482,0.779c-0.436,0.347 -0.792,0.783 -1.068,1.309c-0.276,0.526 -0.452,1.136 -0.529,1.828l3.06,0.328c0.026,-0.462 0.173,-0.876 0.443,-1.242c0.269,-0.365 0.673,-0.548 1.212,-0.548c0.436,0 0.78,0.122 1.03,0.365c0.25,0.244 0.375,0.571 0.375,0.982c0,0.295 -0.077,0.548 -0.231,0.76c-0.154,0.212 -0.34,0.414 -0.558,0.606l-0.635,0.597c-0.257,0.218 -0.478,0.43 -0.664,0.635c-0.186,0.205 -0.343,0.417 -0.472,0.635c-0.128,0.218 -0.224,0.459 -0.288,0.722c-0.065,0.263 -0.097,0.561 -0.097,0.895l0,0.731l3.003,0Z" style="fill:#fff;"/></svg>