<?xml version="1.0" encoding="UTF-8" standalone="no"?><!DOCTYPE svg PUBLIC "-//W3C//DTD SVG 1.1//EN" "http://www.w3.org/Graphics/SVG/1.1/DTD/svg11.dtd"><svg width="100%" height="100%" viewBox="0 0 500 500" version="1.1" xmlns="http://www.w3.org/2000/svg" xmlns:xlink="http://www.w3.org/1999/xlink" xml:space="preserve" style="fill-rule:evenodd;clip-rule:evenodd;stroke-linejoin:round;stroke-miterlimit:1.41421;"><path d="M413.069,44.579c113.012,79.512 -95.311,190.348 -121.563,249.324c-33.284,74.773 -26.481,117.394 2.143,119.138c26.286,1.601 18.653,-102.985 70.993,-153.884c30.452,-29.613 64.818,-75.842 104.939,-30.509c23.156,26.162 -14.142,81.485 -109.191,135.432c-22.851,12.969 -37.657,66.028 -20.819,76.027c44.332,26.327 85.293,-97.856 130.51,-49.5c32.842,35.122 -108.566,103.699 -189.286,109.048c-99.409,6.587 -252.945,-82.785 -208.801,-124.717c45.291,-43.021 136.242,83.973 146.209,51.543c12.245,-39.843 -116.7,-125.495 -116.7,-125.495c-84.922,-87.914 -108.526,-176.945 -29.157,-205.454c52.401,-18.822 75.388,48.343 89.093,112.903c18.693,88.055 50.83,122.162 63.794,101.999c23.056,-35.858 -167.439,-295.6 11.828,-310.293c86.97,-7.128 -25.708,257.549 25.63,266.88c64.659,11.752 44.798,-296.724 150.378,-222.442Z" style="fill:#fff;"/></svg>