<?xml version="1.0" encoding="UTF-8" standalone="no"?><!DOCTYPE svg PUBLIC "-//W3C//DTD SVG 1.1//EN" "http://www.w3.org/Graphics/SVG/1.1/DTD/svg11.dtd"><svg width="100%" height="100%" viewBox="0 0 59 62" version="1.1" xmlns="http://www.w3.org/2000/svg" xmlns:xlink="http://www.w3.org/1999/xlink" xml:space="preserve" style="fill-rule:evenodd;clip-rule:evenodd;stroke-linejoin:round;stroke-miterlimit:1.41421;"><g id="Sun"><circle cx="29.219" cy="30.837" r="17.51" style="fill:#fff;"/><path d="M29.219,61.539l-3.813,-11.734c1.233,0.247 2.508,0.377 3.813,0.377c1.305,0 2.579,-0.13 3.812,-0.377l-3.812,11.734Zm18.046,-5.863l-9.982,-7.253c2.345,-1.078 4.439,-2.612 6.167,-4.489l3.815,11.742Zm-32.278,-11.742c1.728,1.877 3.822,3.411 6.167,4.489l-9.982,7.253l3.815,-11.742Zm43.431,-3.609l-12.341,0c1.236,-2.189 2.057,-4.643 2.358,-7.253l9.983,7.253Zm-48.416,-7.253c0.301,2.61 1.122,5.064 2.358,7.253l-12.341,0l9.983,-7.253Zm2.358,-11.722c-1.236,2.189 -2.057,4.642 -2.358,7.253l-9.983,-7.253l12.341,0Zm36.075,7.253c-0.301,-2.611 -1.122,-5.064 -2.358,-7.253l12.341,0l-9.983,7.253Zm-27.281,-15.352c-2.345,1.079 -4.439,2.613 -6.167,4.489l-3.815,-11.741l9.982,7.252Zm22.296,4.489c-1.728,-1.876 -3.822,-3.41 -6.167,-4.489l9.982,-7.252l-3.815,11.741Zm-10.419,-5.871c-1.233,-0.247 -2.507,-0.376 -3.812,-0.376c-1.305,0 -2.58,0.129 -3.813,0.376l3.813,-11.734l3.812,11.734Z" style="fill:#fff;"/></g></svg>